<?xml version="1.0" encoding="utf-8"?>
<!-- Generator: Adobe Illustrator 22.1.0, SVG Export Plug-In . SVG Version: 6.00 Build 0)  -->
<svg version="1.1" xmlns="http://www.w3.org/2000/svg" xmlns:xlink="http://www.w3.org/1999/xlink" x="0px" y="0px"
	 viewBox="0 0 1920 1080" style="enable-background:new 0 0 1920 1080;" xml:space="preserve">
<style type="text/css">
	.st0{fill:none;stroke:#000000;stroke-miterlimit:10;}
	.st1{fill:none;}
	.st2{fill:#00CDD0;}
	.st3{fill:#FFFF00;}
	.st4{fill:#FF178C;}
	.st5{fill:#FFFFFF;}
</style>
<g id="Layer_1">
	<g>
		<line class="st0" x1="824.7" y1="294.5" x2="826.7" y2="294.5"/>
		<line class="st1" x1="824.7" y1="294.5" x2="826.7" y2="294.5"/>
	</g>
	<path class="st1" d="M774.2,47"/>
	<g>
		<rect x="0.2" class="st2" width="1920" height="1080"/>
	</g>
	<path class="st3" d="M1920.2,897.9V1080h-202.6c3.5-59.9,17.8-118.4,47.5-144C1799.2,906.7,1860.6,892.9,1920.2,897.9z"/>
	<path class="st4" d="M954.2,1230"/>
	<path class="st5" d="M604.4,1080H0.2V0h357.9c-61.3,78.7-120.4,198.1-101.3,330.4c13.1,91.4,63.5,189,176.3,283.5
		c41,34.4,74.8,67.3,102.3,98.9C661.9,858.4,654.9,976.3,604.4,1080z"/>
	<path class="st3" d="M258.5,56.6c0,114.6-91.8,207.4-205.1,207.4c-18.5,0-36.3-2.5-53.2-7.1V0h250.7
		C255.8,18,258.5,36.9,258.5,56.6z"/>
	<path class="st2" d="M543.7,640.3c0,25-2.9,49.2-8.5,72.5c-32.6,136.7-155.6,238.4-302.3,238.4c-92.6,0-175.8-40.5-232.7-104.8
		v-412C57.1,370,140.3,329.5,232.9,329.5c8,0,15.9,0.3,23.8,0.9C417.3,342.6,543.7,476.7,543.7,640.3z"/>
</g>
<g id="Layer_3">
</g>
<g id="Layer_2">
	
		<image style="overflow:visible;" width="189" height="598" xlink:href="7CC89198.png"  transform="matrix(-1.5989 0 0 1.5989 423.0301 132)">
	</image>
</g>
</svg>
