<?xml version="1.0" encoding="utf-8"?>
<!-- Generator: Adobe Illustrator 22.1.0, SVG Export Plug-In . SVG Version: 6.00 Build 0)  -->
<svg version="1.1" xmlns="http://www.w3.org/2000/svg" xmlns:xlink="http://www.w3.org/1999/xlink" x="0px" y="0px"
	 viewBox="0 0 1920 1080" style="enable-background:new 0 0 1920 1080;" xml:space="preserve">
<style type="text/css">
	.st0{fill:none;stroke:#000000;stroke-miterlimit:10;}
	.st1{fill-rule:evenodd;clip-rule:evenodd;fill:#9DFF94;}
	.st2{fill:none;}
	.st3{fill:#00CDD0;}
	.st4{fill:#FFFFFF;}
	.st5{fill:#FFFF00;}
	.st6{fill:#FF178C;}
	.st7{fill:#00C5C8;}
	.st8{fill:#E6B68F;}
	.st9{fill:#37E2B8;}
	.st10{fill:#1F1F1F;}
	.st11{fill:#FF006B;stroke:#D3B9FF;stroke-miterlimit:10;}
	.st12{stroke:#D3B9FF;stroke-miterlimit:10;}
	.st13{fill:none;stroke:#ED8EB8;stroke-width:3;stroke-miterlimit:10;}
</style>
<g id="Layer_1">
	<g>
		<line class="st0" x1="824.5" y1="294.5" x2="826.5" y2="294.5"/>
		<line class="st1" x1="824.5" y1="294.5" x2="826.5" y2="294.5"/>
	</g>
	<path class="st2" d="M774,47c0,197.3,0,357,0,357"/>
	<g>
		<g>
			<g>
				<rect x="3" y="1" class="st3" width="1920" height="1080"/>
			</g>
			<path class="st4" d="M1947-12v1125h-901c103.7-133.1,200.9-382.6-74.9-613.9C741.2,306.4,763.6,93.2,825-33L1947-12z"/>
		</g>
		<path class="st5" d="M257.8,60c0,119.5-90.5,216.3-202.2,216.3c-18.2,0-35.8-2.6-52.5-7.4V1h247.2C255.1,19.8,257.8,39.5,257.8,60
			z"/>
		<path class="st5" d="M1923,911.8V1081h-272.5c-17.1-78.3,0.7-157.5,51.9-201.6C1764.9,825.6,1856.8,841.5,1923,911.8z"/>
	</g>
	<path class="st4" d="M576,696"/>
	<path class="st6" d="M954,1230"/>
</g>
<g id="Layer_4">
	<g>
		<g>
			<ellipse class="st7" cx="659" cy="703.6" rx="227" ry="27.4"/>
			<ellipse class="st7" cx="656" cy="517" rx="182.8" ry="181"/>
		</g>
		<g>
			<path d="M650.6,567c0,0,7.2-14.2,0-25.2c0,0-1.4-7.9,8.6-18.9c10.1-11,4.3-6.3,10.1-17.4c5.8-11-1.4-11,14.4-18.9h23
				c0,0,11.5-3.2,15.8,15.8c4.3,18.9,8.6,26.8,20.2,41c0,0,5.8,15.8-11.5,20.5S650.6,567,650.6,567z"/>
			<g>
				<path class="st4" d="M651.9,690.7c0,0,12.1,2.9,8.1,13.6l-5.3,4.1c0,0-4,10.6-8.5,9.5l-9.4-15.7c0,0,0.4-11.1,9.2-7.2
					L651.9,690.7z"/>
				<path d="M690,657.4l-44.7-9h-17l-2.7,2.8c0,0,1.5-12.5-24.5-10.9s-10.7,29.6-10.7,28c0-1.6,21.5,15.6,21.5,15.6l26.1,7.8
					l30.7,14l30.7,9.3l5.4-10.1c2.9-5.5,1.2-12.7-3.7-15.9l-14.1-8.9l-21.3-14.9l48.3-6.7l-14.6,19l-19.9,14.1l41.4,14l19.9-1.6
					l26.1-10.9l23-15.6c0,0,16.9-24.9-12.3-29.6l-44.5,7.8l-39.9,4.7"/>
				<g>
					<path class="st8" d="M639.3,633.4l12.1,12.5v6.2c0,0-6.4,4.4-14.8-3.4c-1.6-1.5-3.3-3.4-5-5.9
						C621.1,627.2,639.3,633.4,639.3,633.4z"/>
					<g>
						<path class="st8" d="M742.1,635l-9.1,10.9v4.7l2.8,3.8c0,0,12.4-2.2,18.4-10S742.1,635,742.1,635z"/>
						<g>
							<path class="st9" d="M666.6,557.1c0,0-16.7-1.6-27.3,10.9l-15.2,70c0,0,3,10.9,6.1,9.3s12.1-10.9,16.7-9.3l9.1-32.7
								l-1.5,37.4h74.4v-45.1h3l7.6,34.2v4.7c-0.5-0.5,15.8-2.6,12.1,15.6c0,0,15.2-1.6,9.1-21.8s-12.1-56-12.1-56
								S744,554,718.2,554"/>
							<g>
								<path class="st8" d="M674.2,522.9c0,0,24.3,17.1,44,0c0,0,3,26.5-22.8,31.1C695.4,554,669.6,552.5,674.2,522.9z"/>
								<path class="st8" d="M666.6,557.1l10.6-6.2l18.2-7.8l22.8,10.9v12.5C718.2,566.5,684.8,599.2,666.6,557.1z"/>
							</g>
							<path class="st10" d="M733.3,672.3h-81.9c-3.4,0-6.1-2.7-6.1-6.1v-50c0-3.4,2.7-6.1,6.1-6.1h81.9c3.4,0,6.1,2.7,6.1,6.1v50
								C739.4,669.6,736.7,672.3,733.3,672.3z"/>
							<ellipse class="st4" cx="692.4" cy="640.4" rx="6.9" ry="7.4"/>
						</g>
					</g>
				</g>
				<polyline class="st8" points="704.6,701.7 717.1,708.6 717.1,715.6 696,713.8 				"/>
				<path class="st4" d="M709.1,700.7c0,0-9.8,8.6-2.1,16.2l6.3,1.1c0,0,7.6,7.6,11.3,4.4l2.4-18.7c0,0-4.6-9.9-11-2L709.1,700.7z"
					/>
			</g>
		</g>
		<g>
			<path class="st11" d="M566.1,652.8c-24.8,50.6-54,39.6-54,39.6c-0.7,0-0.7,0-1.4,0c-40.2-0.4-46-39.7-46-39.7
				c25.2-6,36.4,20,36.7,20.5c-11.1-23.7,5-55.4,10.8-60.4c0.4-0.3,0.5-0.6,0.5-0.6c3.4,3.7,6,7.4,8.1,11c0,0,0,0,0,0
				c7.2,12.3,7.8,23.8,6.5,32.2c-0.2,1.5-0.5,3-0.8,4.3c0,0,0,0,0,0c-1.5,6-1.7,7.3-1.7,7.4c0.3-0.4-0.3,0.4,0,0
				C544.8,643.2,566.1,652.8,566.1,652.8z"/>
			<path class="st12" d="M513.8,612.5c0.3-0.4,0.5-0.6,0.5-0.6c3.4,3.7,6,7.4,8.1,11C519.7,618.7,516.7,615.3,513.8,612.5z"/>
			<path class="st12" d="M528.9,655.1c-0.2,1.5-0.5,3-0.8,4.3C528.4,657.9,528.7,656.5,528.9,655.1z"/>
			<path class="st12" d="M567.6,652.5c-24.8,50.6-54,39.6-54,39.6c-0.7,0-1.4,0-2.1,0c6.6-8.7,11-16.8,13.9-24.1
				C544.8,642.7,567.6,652.5,567.6,652.5z"/>
			<path class="st13" d="M509.2,689c-27,2.5-41.6-41-41.6-41c15,0.5,25,4.1,31.8,8.9C499.9,666,503.7,678.1,509.2,689z"/>
			<g>
				<path class="st13" d="M508.1,686.9c-8-20.8-7.9-20.8-8.4-29.8"/>
				<path class="st13" d="M511.4,686.4"/>
				<path class="st13" d="M488.8,680.6"/>
				<path class="st13" d="M511.4,686.4c0.2-3.5,0.4-7.4,0.7-11.5"/>
				<path class="st13" d="M482.3,688.9"/>
				<path class="st13" d="M488.8,680.6"/>
				<path class="st13" d="M513.1,685.9"/>
				<path class="st13" d="M511.4,686.4"/>
				<path class="st13" d="M499.7,657.1c-2.9-23.5,13.4-43.7,14.1-44.3c0.5-0.9,0.6,0.7,1,1.1c34.1,36.2-3.7,78.4-3.7,78.4
					c-1.1-1.8-2-3.6-2.9-5.3"/>
				<path class="st13" d="M511.4,686.4c-0.1,1.9-0.2,3.6-0.4,5.2"/>
				<path class="st13" d="M512.1,674.9c1.3-26.1,2.1-61.4,2.1-61.4"/>
			</g>
		</g>
	</g>
</g>
</svg>
